<svg width="192" height="52" viewBox="0 0 192 52" fill="none" xmlns="http://www.w3.org/2000/svg">
<path d="M32.0984 36.537L29.9162 38.8362L29.7119 39.0532L38.2005 47.0746L38.406 46.8576L40.5869 44.5584L40.7132 44.4264L32.2246 36.405L32.0984 36.537Z" fill="white"/>
<path d="M27.405 41.4845L25.2539 43.7516L33.7425 51.7718L35.8936 49.5059L36.2552 49.1248L27.7666 41.1034L27.405 41.4845Z" fill="white"/>
<path d="M56.1389 27.1348L48.1841 19.5852L46.3475 17.8427L45.4751 17.0151L43.6385 15.2726L40.9295 12.7013L40.8377 12.6141L38.2205 10.1301H38.2193L38.1287 10.0428L35.5103 7.55995L32.8013 4.98869L30.0923 2.41859L27.544 0L25.3711 2.28888L27.9251 4.70287L30.6399 7.26724L33.3535 9.83276L35.9764 12.311L36.0682 12.3971V12.3983L38.6911 14.8754L38.7829 14.9626L41.4977 17.5282L43.3377 19.2672L44.2124 20.0925L46.0525 21.8316L54.3023 29.628L54.5411 29.853L56.6566 27.6249L56.1389 27.1348Z" fill="white"/>
<path d="M42.0619 22.3596L41.1883 21.5331L39.3483 19.7952L36.6335 17.2297L36.5406 17.1424L33.9188 14.6642H33.9177L33.8258 14.5769L31.2041 12.0986L28.4893 9.53427L25.7746 6.96876L23.2205 4.55591L23.0966 4.68791L22.8601 4.937L20.9133 6.98827L20.709 7.20407L23.2619 9.61692L25.9766 12.1824L28.6914 14.7468L31.3143 17.2251L31.4049 17.3123H31.4061L34.0279 19.7906L34.1208 19.8778L36.8356 22.4422L38.6756 24.1812L39.5492 25.0077L41.3892 26.7456L49.879 34.7682L50.0833 34.5512L52.0301 32.5011L52.2654 32.252L52.3917 32.12L43.9019 24.0986L42.0619 22.3596Z" fill="white"/>
<path d="M37.6035 27.0577L36.7299 26.2312L34.8899 24.4922L32.1751 21.9278L32.0833 21.8406L29.4604 19.3623L29.3686 19.275L26.7456 16.7968L24.0309 14.2324L21.3173 11.6669L18.7633 9.25403L18.4017 9.63513L16.6558 11.4752L16.3252 11.823L16.2506 11.9022L14.1442 14.121L11.5431 16.8633L11.4168 16.9953L9.23586 19.2945L9.03039 19.5104L8.90527 19.6424L7.08473 21.5605L6.72314 21.9416L4.57201 24.2086L0 29.0263L2.54945 31.4449L2.59307 31.399L7.12605 26.6215L9.27718 24.3544L9.63876 23.9745L11.4593 22.0552L11.5844 21.9243L11.7887 21.7074H11.7899L13.9709 19.4082L14.0971 19.2762L16.6982 16.535L18.8046 14.315L21.5193 16.8794L19.4118 19.0994L16.8107 21.8406L16.6856 21.9737L14.5035 24.2729L14.298 24.4887L14.174 24.6207H14.1729L12.3535 26.5388L11.9919 26.9199L9.84079 29.187L5.30207 33.9702L5.21483 34.062L7.92383 36.6322L8.01107 36.5403L12.5555 31.7514L14.7055 29.4854L15.0671 29.1043L16.8876 27.1862V27.1851L17.0128 27.0542L17.2182 26.8373L19.4004 24.5381L19.5255 24.4061L22.1266 21.6649L24.2329 19.4449L26.8558 21.9232L26.9477 22.0093L24.8413 24.2293V24.2304L22.2402 26.9704V26.9716L22.1151 27.1036H22.1139L19.933 29.4028L19.7275 29.6186L19.6024 29.7506L17.7818 31.6687L17.4203 32.0498L15.2703 34.3169H15.2691L10.7201 39.1116L10.6328 39.2034L13.3418 41.7735L13.4291 41.6817L17.9839 36.8812L20.135 34.6153L20.4966 34.2342L22.3171 32.3161L22.4422 32.1841L22.6477 31.9672L24.8287 29.668L24.955 29.536L27.5561 26.7948L29.6624 24.5748L32.3772 27.1403L30.2708 29.3603L27.6697 32.1015L27.5434 32.2335L25.3624 34.5327L25.157 34.7496L25.0319 34.8805V34.8816L23.2113 36.7997L22.8497 37.1808L20.6986 39.4468L16.1381 44.2529L16.0945 44.2989L17.9311 46.0413L18.8035 46.869L23.4133 42.0111L25.5633 39.7452L25.9249 39.3641L27.7455 37.446L27.8706 37.314L28.076 37.097L30.2582 34.7978L30.3833 34.6658L32.9844 31.9247L35.0919 29.7047L36.9319 31.4437L45.4205 39.4651L45.4952 39.3859L45.8257 39.0381L47.5717 37.1992L47.9333 36.8181L39.4435 28.7967L37.6035 27.0577Z" fill="white"/>
<path d="M32.0993 36.5368L29.9172 38.836L29.7129 39.0529L38.2015 47.0743L38.4069 46.8574L40.5879 44.5582L40.7142 44.4262L32.2256 36.4048L32.0993 36.5368Z" fill="white"/>
<path d="M27.405 41.4845L25.2539 43.7516L33.7425 51.7718L35.8936 49.5059L36.2552 49.1248L27.7666 41.1034L27.405 41.4845Z" fill="white"/>
<path d="M56.1389 27.1348L48.1841 19.5852L46.3475 17.8427L45.4751 17.0151L43.6385 15.2726L40.9295 12.7013L40.8377 12.6141L38.2205 10.1301H38.2193L38.1287 10.0428L35.5103 7.55995L32.8013 4.98869L30.0923 2.41859L27.544 0L25.3711 2.28888L27.9251 4.70287L30.6399 7.26724L33.3535 9.83276L35.9764 12.311L36.0682 12.3971V12.3983L38.6911 14.8754L38.7829 14.9626L41.4977 17.5282L43.3377 19.2672L44.2124 20.0925L46.0525 21.8316L54.3023 29.628L54.5411 29.853L56.6566 27.6249L56.1389 27.1348Z" fill="white"/>
<path d="M42.0619 22.3596L41.1883 21.5331L39.3483 19.7952L36.6335 17.2297L36.5406 17.1424L33.9188 14.6642H33.9177L33.8258 14.5769L31.2041 12.0986L28.4893 9.53427L25.7746 6.96876L23.2205 4.55591L23.0966 4.68791L22.8601 4.937L20.9133 6.98827L20.709 7.20407L23.2619 9.61692L25.9766 12.1824L28.6914 14.7468L31.3143 17.2251L31.4049 17.3123H31.4061L34.0279 19.7906L34.1208 19.8778L36.8356 22.4422L38.6756 24.1812L39.5492 25.0077L41.3892 26.7456L49.879 34.7682L50.0833 34.5512L52.0301 32.5011L52.2654 32.252L52.3917 32.12L43.9019 24.0986L42.0619 22.3596Z" fill="white"/>
<path d="M83.0644 11.8064V15.3056H88.8469V17.2902H83.0644V22.5651H80.8527V9.79566H89.5397L89.513 11.8064H83.0644Z" fill="white"/>
<path d="M92.9113 22.5651V9.79566H95.123V20.5283H101.065V22.5651H92.9113Z" fill="white"/>
<path d="M110.26 11.4408C108.963 11.4408 107.871 11.8934 106.982 12.7987C106.094 13.704 105.65 14.8007 105.65 16.089C105.65 17.3772 106.094 18.474 106.982 19.3793C107.871 20.2671 108.963 20.7111 110.26 20.7111C111.557 20.7111 112.649 20.2671 113.538 19.3793C114.426 18.474 114.87 17.3772 114.87 16.089C114.87 14.8007 114.426 13.704 113.538 12.7987C112.649 11.8934 111.557 11.4408 110.26 11.4408ZM110.26 22.6957C108.306 22.6957 106.672 22.0689 105.357 20.8155C104.042 19.5447 103.385 17.9691 103.385 16.089C103.385 14.2088 104.042 12.642 105.357 11.3886C106.672 10.1177 108.306 9.4823 110.26 9.4823C112.214 9.4823 113.849 10.1177 115.163 11.3886C116.478 12.642 117.135 14.2088 117.135 16.089C117.135 17.9691 116.469 19.5359 115.137 20.7894C113.804 22.0602 112.179 22.6957 110.26 22.6957Z" fill="white"/>
<path d="M122.447 13.0076C122.447 13.5473 122.652 13.939 123.06 14.1827C123.469 14.4787 124.339 14.7833 125.672 15.0967C127.075 15.4274 128.096 15.8801 128.736 16.4546C129.393 17.0291 129.722 17.856 129.722 18.9353C129.722 20.0669 129.287 20.9809 128.416 21.6772C127.563 22.3736 126.444 22.7218 125.059 22.7218C123.051 22.7218 121.239 22.0254 119.623 20.6327L121.008 19.0137C122.358 20.1453 123.726 20.7111 125.112 20.7111C125.805 20.7111 126.364 20.5631 126.791 20.2671C127.217 19.9538 127.43 19.5534 127.43 19.0659C127.43 18.5785 127.235 18.1955 126.844 17.9169C126.471 17.6384 125.796 17.3859 124.819 17.1596C123.131 16.7766 121.959 16.324 121.301 15.8017C120.538 15.2272 120.156 14.3481 120.156 13.1643C120.156 12.0153 120.582 11.1187 121.435 10.4746C122.287 9.81307 123.38 9.4823 124.712 9.4823C126.506 9.4823 128.043 9.99586 129.322 11.023L128.15 12.642C127.759 12.2938 127.235 12.0153 126.578 11.8064C125.92 11.5801 125.272 11.4669 124.632 11.4669C123.975 11.4669 123.442 11.6062 123.033 11.8847C122.643 12.1459 122.447 12.5202 122.447 13.0076Z" fill="white"/>
<path d="M134.985 13.0076C134.985 13.5473 135.19 13.939 135.598 14.1827C136.007 14.4787 136.877 14.7833 138.21 15.0967C139.613 15.4274 140.635 15.8801 141.274 16.4546C141.931 17.0291 142.26 17.856 142.26 18.9353C142.26 20.0669 141.825 20.9809 140.954 21.6772C140.102 22.3736 138.982 22.7218 137.597 22.7218C135.589 22.7218 133.777 22.0254 132.161 20.6327L133.546 19.0137C134.897 20.1453 136.264 20.7111 137.65 20.7111C138.343 20.7111 138.903 20.5631 139.329 20.2671C139.755 19.9538 139.968 19.5534 139.968 19.0659C139.968 18.5785 139.773 18.1955 139.382 17.9169C139.009 17.6384 138.334 17.3859 137.357 17.1596C135.669 16.7766 134.497 16.324 133.84 15.8017C133.076 15.2272 132.694 14.3481 132.694 13.1643C132.694 12.0153 133.12 11.1187 133.973 10.4746C134.825 9.81307 135.918 9.4823 137.25 9.4823C139.045 9.4823 140.581 9.99586 141.86 11.023L140.688 12.642C140.297 12.2938 139.773 12.0153 139.116 11.8064C138.458 11.5801 137.81 11.4669 137.17 11.4669C136.513 11.4669 135.98 11.6062 135.572 11.8847C135.181 12.1459 134.985 12.5202 134.985 13.0076Z" fill="white"/>
<path d="M90.4723 38.3113L91.8846 39.7214C90.5345 41.236 88.8646 41.9933 86.875 41.9933C84.9031 41.9933 83.2598 41.3752 81.9452 40.1392C80.6484 38.8858 80 37.3103 80 35.4127C80 33.4977 80.6662 31.9135 81.9985 30.6601C83.3309 29.3892 85.0097 28.7538 87.0348 28.7538C89.0245 28.7538 90.7033 29.485 92.0712 30.9473L90.6855 32.4358C90.0637 31.8439 89.4775 31.4348 88.9268 31.2084C88.3761 30.9821 87.7277 30.869 86.9816 30.869C85.6492 30.869 84.53 31.2868 83.624 32.1224C82.7358 32.958 82.2917 34.02 82.2917 35.3082C82.2917 36.5791 82.7358 37.6584 83.624 38.5463C84.5122 39.4341 85.5693 39.8781 86.795 39.8781C87.5411 39.8781 88.1807 39.7562 88.7136 39.5125C89.2643 39.2688 89.8506 38.8684 90.4723 38.3113Z" fill="white"/>
<path d="M102.954 37.1884L106.365 41.8366H103.567L100.449 37.5279H97.5715V41.8366H95.3597V29.0671H100.21C102.181 29.0671 103.594 29.3979 104.446 30.0594C105.317 30.7036 105.752 31.7568 105.752 33.2192C105.752 35.3256 104.819 36.6487 102.954 37.1884ZM100.289 35.5955C101.515 35.5955 102.359 35.4127 102.821 35.0471C103.283 34.6815 103.514 34.0635 103.514 33.1931C103.514 32.3574 103.283 31.7916 102.821 31.4957C102.359 31.1823 101.533 31.0256 100.343 31.0256H97.5715V35.5955H100.289Z" fill="white"/>
<path d="M118.882 29.0671V31.0779H111.927V34.4726H118.162V36.3789H111.927V39.7997H119.095V41.8366H109.715V29.0671H118.882Z" fill="white"/>
<path d="M124.521 38.938L123.216 41.8366H120.871L126.626 29.0671H128.971L134.7 41.8366H132.356L131.05 38.938H124.521ZM130.17 36.9273L127.799 31.6785L125.427 36.9273H130.17Z" fill="white"/>
<path d="M142.22 31.0256V41.8366H140.009V31.0256H136.065V29.0671H146.164V31.0256H142.22Z" fill="white"/>
<path d="M149.349 29.0671H151.561V41.8366H149.349V29.0671Z" fill="white"/>
<path d="M161.873 41.8366H159.421L154.172 29.0671H156.65L160.647 38.5985L164.671 29.0671H167.122L161.873 41.8366Z" fill="white"/>
<path d="M178.922 29.0671V31.0779H171.967V34.4726H178.203V36.3789H171.967V39.7997H179.136V41.8366H169.756V29.0671H178.922Z" fill="white"/>
<path d="M184.482 32.2791C184.482 32.8188 184.686 33.2105 185.095 33.4542C185.503 33.7501 186.374 34.0548 187.706 34.3682C189.109 34.6989 190.131 35.1516 190.77 35.726C191.428 36.3005 191.756 37.1275 191.756 38.2068C191.756 39.3384 191.321 40.2524 190.451 40.9487C189.598 41.6451 188.479 41.9933 187.093 41.9933C185.086 41.9933 183.274 41.2969 181.657 39.9042L183.043 38.2852C184.393 39.4167 185.761 39.9825 187.146 39.9825C187.839 39.9825 188.399 39.8346 188.825 39.5386C189.252 39.2252 189.465 38.8248 189.465 38.3374C189.465 37.8499 189.269 37.4669 188.879 37.1884C188.505 36.9099 187.83 36.6574 186.853 36.4311C185.166 36.0481 183.993 35.5955 183.336 35.0732C182.572 34.4987 182.19 33.6196 182.19 32.4358C182.19 31.2868 182.616 30.3902 183.469 29.7461C184.322 29.0845 185.414 28.7538 186.747 28.7538C188.541 28.7538 190.078 29.2673 191.357 30.2945L190.184 31.9135C189.793 31.5653 189.269 31.2868 188.612 31.0779C187.955 30.8516 187.306 30.7384 186.667 30.7384C186.01 30.7384 185.477 30.8777 185.068 31.1562C184.677 31.4173 184.482 31.7916 184.482 32.2791Z" fill="white"/>
</svg>
