<svg width="32" height="42" viewBox="0 0 32 42" fill="none" xmlns="http://www.w3.org/2000/svg">
<path d="M16 42C13.113 39.4866 10.437 36.7312 7.99998 33.7626C4.34285 29.3045 2.0089e-06 22.6651 2.0089e-06 16.3383C-0.00158404 13.1072 0.936018 9.94822 2.69415 7.26117C4.45228 4.57411 6.95192 2.47978 9.8767 1.24321C12.8015 0.00664105 16.02 -0.316571 19.1248 0.314476C22.2296 0.945523 25.0813 2.50246 27.3188 4.78826C28.8085 6.30196 29.9893 8.1022 30.7928 10.0848C31.5963 12.0673 32.0066 14.1929 31.9999 16.3383C31.9999 22.6651 27.6571 29.3045 23.9999 33.7626C21.5629 36.7312 18.8869 39.4866 16 42ZM16 9.3397C14.1813 9.3397 12.4372 10.0771 11.1512 11.3896C9.86528 12.7021 9.14284 14.4822 9.14284 16.3383C9.14284 18.1945 9.86528 19.9746 11.1512 21.2871C12.4372 22.5996 14.1813 23.337 16 23.337C17.8186 23.337 19.5627 22.5996 20.8487 21.2871C22.1346 19.9746 22.8571 18.1945 22.8571 16.3383C22.8571 14.4822 22.1346 12.7021 20.8487 11.3896C19.5627 10.0771 17.8186 9.3397 16 9.3397Z" fill="url(#paint0_linear_29_6599)"/>
<defs>
<linearGradient id="paint0_linear_29_6599" x1="32" y1="20.16" x2="1.99318e-08" y2="20.16" gradientUnits="userSpaceOnUse">
<stop stop-color="#98C1ED"/>
<stop offset="0.283516" stop-color="#CAAAD2"/>
<stop offset="0.520988" stop-color="#B996C8"/>
<stop offset="1" stop-color="#BACBE7"/>
</linearGradient>
</defs>
</svg>
