<?xml version="1.0" standalone="no"?>
<!DOCTYPE svg PUBLIC "-//W3C//DTD SVG 20010904//EN"
 "http://www.w3.org/TR/2001/REC-SVG-20010904/DTD/svg10.dtd">
<svg version="1.0" xmlns="http://www.w3.org/2000/svg"
 width="700.000000pt" height="700.000000pt" viewBox="0 0 700.000000 700.000000"
 preserveAspectRatio="xMidYMid meet">
<metadata>
Created by potrace 1.14, written by Peter Selinger 2001-2017
</metadata>
<g transform="translate(0.000000,700.000000) scale(0.100000,-0.100000)"
fill="#000000" stroke="none">
<path d="M3284 6434 c-65 -69 -120 -129 -122 -133 -1 -4 28 -36 65 -72 99 -93
371 -351 418 -394 22 -21 81 -76 131 -124 85 -80 358 -339 429 -406 17 -16 97
-91 176 -166 79 -75 160 -151 179 -169 19 -18 71 -67 115 -109 153 -145 400
-378 440 -415 22 -21 74 -70 115 -109 42 -40 152 -144 245 -232 93 -88 203
-192 245 -232 41 -39 93 -88 115 -108 22 -21 102 -97 179 -169 76 -72 153
-144 171 -161 17 -16 102 -96 187 -177 86 -82 160 -148 165 -148 9 0 221 221
235 245 6 10 -134 152 -314 317 -15 13 -98 92 -185 175 -87 83 -178 170 -203
194 -25 23 -115 108 -200 189 -85 81 -171 162 -190 180 -32 29 -223 211 -480
456 -102 97 -253 240 -305 289 -18 17 -107 101 -198 189 -92 87 -176 167 -188
177 -11 10 -105 98 -207 196 -157 149 -311 296 -408 388 -360 342 -475 449
-483 453 -4 1 -61 -54 -127 -124z"/>
<path d="M2898 6032 c-1 -6 -64 -73 -138 -151 -74 -78 -136 -146 -138 -150 -1
-4 30 -39 71 -77 262 -248 383 -362 406 -383 27 -25 296 -279 436 -412 44 -43
96 -91 115 -109 19 -18 106 -100 194 -184 87 -83 167 -158 176 -166 10 -9 84
-78 165 -155 186 -176 190 -180 375 -355 85 -80 192 -182 239 -226 47 -45 102
-96 121 -114 19 -18 100 -94 180 -170 80 -76 161 -152 180 -170 19 -18 107
-101 194 -184 88 -83 171 -162 186 -176 15 -14 93 -88 174 -165 82 -77 152
-142 157 -143 8 -3 118 107 258 257 l41 45 -39 35 c-22 20 -101 95 -178 167
-76 72 -154 146 -173 164 -19 18 -100 95 -180 170 -80 76 -165 157 -190 180
-46 43 -307 290 -365 345 -50 47 -305 288 -355 335 -25 23 -110 104 -190 180
-80 76 -161 152 -180 170 -19 18 -107 101 -195 185 -88 83 -172 163 -187 176
-14 14 -90 85 -169 159 -78 74 -147 140 -153 145 -6 6 -56 53 -111 105 -55 52
-177 167 -270 255 -93 88 -207 196 -254 240 -46 44 -89 85 -95 90 -78 73 -105
94 -108 87z"/>
<path d="M2238 5328 c-86 -90 -170 -179 -188 -198 -18 -19 -101 -107 -184
-194 -83 -88 -167 -176 -186 -196 -19 -20 -78 -82 -130 -136 -120 -126 -376
-396 -426 -449 -20 -22 -103 -110 -184 -195 -82 -85 -167 -175 -190 -200 -23
-25 -106 -112 -184 -194 -77 -81 -154 -163 -171 -180 -16 -18 -63 -66 -104
-108 l-74 -76 94 -89 c52 -49 119 -113 149 -141 l55 -52 54 57 c29 32 97 103
150 159 53 55 159 167 236 249 77 81 160 169 185 195 25 26 113 118 195 205
180 190 172 182 361 381 84 87 171 179 194 204 46 49 297 314 427 449 l82 86
63 -61 c35 -33 105 -101 155 -150 l93 -89 -72 -75 c-39 -41 -109 -115 -156
-165 -82 -87 -390 -411 -462 -486 -61 -63 -306 -322 -350 -369 -23 -25 -112
-119 -198 -209 -87 -90 -164 -172 -172 -181 -8 -10 -90 -96 -181 -191 -91 -96
-195 -205 -231 -243 l-64 -69 80 -77 c45 -42 115 -109 156 -149 l75 -71 90 93
c93 97 337 354 414 436 24 25 82 87 130 137 47 49 156 164 241 254 210 222
338 357 441 465 48 49 102 106 119 125 18 19 99 105 180 190 81 85 176 186
211 223 l64 68 70 -67 c39 -36 109 -103 157 -148 l87 -81 -47 -51 c-40 -44
-227 -242 -392 -415 -25 -26 -76 -80 -114 -120 -39 -41 -143 -150 -232 -244
-89 -93 -179 -188 -199 -210 -21 -22 -108 -114 -195 -205 -178 -187 -303 -319
-350 -370 -18 -19 -103 -108 -189 -198 -86 -90 -157 -169 -159 -177 -2 -7 3
-19 11 -26 95 -92 281 -265 289 -267 5 -2 17 5 26 16 10 11 87 93 172 182 85
90 171 180 190 200 83 88 479 505 619 652 49 51 104 109 122 129 38 41 289
305 359 378 161 169 356 375 375 397 13 15 27 25 33 23 5 -2 78 -69 161 -148
l151 -144 -78 -80 c-42 -44 -93 -96 -112 -117 -19 -20 -103 -109 -186 -196
-83 -87 -166 -175 -184 -194 -33 -35 -277 -293 -360 -380 -90 -94 -348 -366
-380 -400 -27 -29 -234 -247 -370 -390 -177 -185 -210 -221 -210 -228 0 -8
275 -273 297 -286 11 -6 26 4 55 35 23 24 111 118 198 209 86 91 174 183 194
205 39 41 56 59 352 370 94 99 188 198 209 220 20 22 101 108 180 190 79 83
160 168 180 190 56 59 337 354 440 462 l90 93 60 -56 c33 -31 94 -89 135 -128
191 -181 408 -386 440 -416 29 -27 309 -291 360 -340 8 -8 57 -54 107 -102
l92 -87 69 72 c38 40 103 108 145 152 l77 80 -108 105 c-60 58 -169 161 -242
230 -73 69 -150 141 -170 160 -20 19 -103 98 -185 175 -81 77 -167 158 -190
180 -23 22 -105 99 -181 170 -248 234 -451 426 -588 556 -50 48 -111 106 -136
129 -66 62 -298 281 -546 515 -81 77 -162 154 -179 170 -18 17 -99 94 -181
171 -82 78 -165 156 -184 174 -19 18 -102 96 -184 174 -83 77 -166 156 -185
174 -20 19 -54 52 -77 73 l-41 40 -155 -163z"/>
<path d="M3809 2199 c-73 -78 -137 -146 -141 -153 -4 -6 8 -25 30 -45 20 -19
105 -98 187 -176 83 -78 166 -157 186 -176 73 -68 335 -317 436 -414 58 -54
112 -105 122 -112 16 -11 34 4 157 134 76 80 141 150 143 155 3 9 -21 34 -206
207 -142 134 -540 510 -666 631 -49 47 -94 86 -101 88 -7 1 -73 -61 -147 -139z"/>
<path d="M3287 1647 l-146 -152 64 -60 c35 -33 96 -91 137 -129 40 -38 138
-131 218 -206 80 -76 163 -155 185 -175 22 -21 103 -97 180 -170 180 -170 197
-185 204 -185 6 0 123 121 244 253 l48 52 -48 44 c-27 24 -113 106 -193 181
-80 76 -161 152 -180 170 -19 18 -100 94 -180 170 -80 76 -161 152 -180 170
-19 17 -69 64 -110 104 -41 40 -80 76 -86 79 -7 4 -72 -57 -157 -146z"/>
</g>
</svg>
